<?xml version="1.0" encoding="utf-8"?>
<!-- Generator: Adobe Illustrator 26.5.0, SVG Export Plug-In . SVG Version: 6.00 Build 0)  -->
<svg version="1.1" id="Layer_1" xmlns="http://www.w3.org/2000/svg" xmlns:xlink="http://www.w3.org/1999/xlink" x="0px" y="0px"
	 viewBox="0 0 512 512" style="enable-background:new 0 0 512 512;" xml:space="preserve">
<style type="text/css">
	.st0{fill:#FF690F;}
	.st1{fill:#FFFFFF;}
</style>
<g>
	<rect y="206.92" class="st0" width="98.05" height="98.05"/>
	<rect x="30.16" y="231.47" class="st1" width="11.92" height="49.1"/>
	<polygon class="st1" points="67.89,280.57 54.71,280.57 41.1,256.02 54.71,231.47 67.89,231.47 54.15,256.02 	"/>
	<rect x="103.52" y="206.92" class="st0" width="98.05" height="98.05"/>
	<path class="st1" d="M143.64,273.41l-2.1,7.15h-12.76l16.13-49.1h15.15l15.99,49.1H163l-2.1-7.01L143.64,273.41z M152.34,245.5
		l-5.75,18.38h11.5L152.34,245.5z"/>
	<rect x="206.9" y="206.92" class="st0" width="98.05" height="98.05"/>
	<polygon class="st1" points="262.17,280.57 250.11,280.57 250.11,258.97 233.98,231.47 248.28,231.47 256.14,246.48 264,231.47 
		278.02,231.47 262.17,258.97 	"/>
	<rect x="310.43" y="206.92" class="st0" width="98.05" height="98.05"/>
	<path class="st1" d="M350.68,273.41l-2.1,7.15h-12.76l16.13-49.1h15.15l15.99,49.1h-13.05l-2.1-7.01L350.68,273.41z M359.24,245.5
		l-5.75,18.38h11.5L359.24,245.5z"/>
	<rect x="413.95" y="206.92" class="st0" width="98.05" height="98.05"/>
	<rect x="444.11" y="231.47" class="st1" width="11.92" height="49.1"/>
	<polygon class="st1" points="481.84,280.57 468.66,280.57 455.05,256.02 468.66,231.47 481.84,231.47 468.09,256.02 	"/>
</g>
</svg>
